<?xml version="1.0" standalone="no"?><!DOCTYPE svg PUBLIC "-//W3C//DTD SVG 1.1//EN" "http://www.w3.org/Graphics/SVG/1.1/DTD/svg11.dtd"><svg t="1762516754098" class="icon" viewBox="0 0 1024 1024" version="1.1" xmlns="http://www.w3.org/2000/svg" p-id="7666" data-spm-anchor-id="a313x.search_index.0.i11.44ce3a81MzTAA8" xmlns:xlink="http://www.w3.org/1999/xlink" width="200" height="200"><path d="M522.8 735.4h20.5M715.9 716.4h-29.6" fill="#FFFFFF" p-id="7667"></path><path d="M830.8 716.2s-22 43.2 12.3 61.2c0 0-58.6 7.3-80-36l40-40.7 27.7 15.5z" fill="#1afa29" p-id="7668" data-spm-anchor-id="a313x.search_index.0.i13.44ce3a81MzTAA8" class=""></path><path d="M763 741.4l30.3-30.8 37.5 5.6c-21.2 25.2-28.9 46.5-31.5 56.2-14-5-28-14.2-36.3-31z" fill="#1afa29" p-id="7669" data-spm-anchor-id="a313x.search_index.0.i15.44ce3a81MzTAA8" class=""></path><path d="M533.1 609.4c0 92.8 75.2 168 168 168 58 0 109.1-29.4 139.3-74.1 18.1-26.8 28.7-59.1 28.7-93.9 0-92.8-75.2-168-168-168s-168 75.2-168 168z" fill="#1afa29" p-id="7670" data-spm-anchor-id="a313x.search_index.0.i12.44ce3a81MzTAA8" class=""></path><path d="M777.8 609.4m-24.7 0a24.7 24.7 0 1 0 49.4 0 24.7 24.7 0 1 0-49.4 0Z" fill="#FFFFFF" p-id="7671"></path><path d="M701.1 609.4m-24.7 0a24.7 24.7 0 1 0 49.4 0 24.7 24.7 0 1 0-49.4 0Z" fill="#FFFFFF" p-id="7672"></path><path d="M624.4 609.4m-24.7 0a24.7 24.7 0 1 0 49.4 0 24.7 24.7 0 1 0-49.4 0Z" fill="#FFFFFF" p-id="7673"></path><path d="M702 710.8h-32.3M397 680.7h46.7" fill="#FFFFFF" p-id="7674"></path><path d="M215.4 680.4s34.8 68.3-19.4 96.7c0 0 92.6 11.5 126.5-56.8L259.3 656l-43.9 24.4z" fill="#1296db" p-id="7675" data-spm-anchor-id="a313x.search_index.0.i9.44ce3a81MzTAA8" class=""></path><path d="M322.5 720.3l-47.9-48.7-59.2 8.9c33.4 39.8 45.6 73.5 49.8 88.7 22.1-7.8 44.2-22.3 57.3-48.9z" fill="#1296db" p-id="7676" data-spm-anchor-id="a313x.search_index.0.i10.44ce3a81MzTAA8" class=""></path><path d="M685.9 511.6c0 146.6-118.9 265.5-265.5 265.5-91.6 0-172.4-46.4-220.1-117.1-28.6-42.4-45.3-93.5-45.3-148.4 0-146.6 118.9-265.5 265.5-265.5S685.9 365 685.9 511.6z" fill="#1296db" p-id="7677" data-spm-anchor-id="a313x.search_index.0.i8.44ce3a81MzTAA8" class=""></path><path d="M299.2 511.6m-39 0a39 39 0 1 0 78 0 39 39 0 1 0-78 0Z" fill="#FFFFFF" p-id="7678"></path><path d="M420.4 511.6m-39 0a39 39 0 1 0 78 0 39 39 0 1 0-78 0Z" fill="#FFFFFF" p-id="7679"></path><path d="M541.5 511.6m-39 0a39 39 0 1 0 78 0 39 39 0 1 0-78 0Z" fill="#FFFFFF" p-id="7680"></path></svg>